<?xml version="1.0" standalone="no"?>
<!DOCTYPE svg PUBLIC "-//W3C//DTD SVG 20010904//EN"
 "http://www.w3.org/TR/2001/REC-SVG-20010904/DTD/svg10.dtd">
<svg version="1.0" xmlns="http://www.w3.org/2000/svg"
 width="80.000000pt" height="63.000000pt" viewBox="0 0 108.000000 96.000000"
 preserveAspectRatio="xMidYMid meet">

<g transform="translate(0.000000,96.000000) scale(0.100000,-0.100000)"
fill="#000000" stroke="none">
<path d="M310 940 c-228 -21 -284 -81 -303 -322 -13 -156 1 -381 27 -443 54
-130 172 -161 571 -152 237 5 298 14 363 53 62 36 102 119 102 210 l0 54 -54
0 -54 0 -4 -65 c-4 -72 -26 -111 -73 -134 -48 -23 -191 -33 -415 -29 -190 4
-221 7 -262 26 -79 35 -83 47 -86 337 -3 244 -2 251 20 295 39 75 65 80 418
77 275 -2 297 -3 329 -22 43 -25 71 -78 71 -132 l0 -43 58 0 58 0 -7 65 c-9
73 -25 109 -66 146 -37 35 -77 54 -141 68 -70 15 -432 22 -552 11z"/>
</g>
</svg>
